<svg width="1024" height="1024" viewBox="0 0 1024 1024" fill="none" xmlns="http://www.w3.org/2000/svg">
    <g clip-path="url(#clip0_404_13)">
        <circle cx="512" cy="512" r="512" fill="#0E0E0E" />
        <path
            d="M737.008 122.295C804.881 161.484 861.342 217.719 900.802 285.434C940.262 353.148 961.352 429.995 961.985 508.365C962.618 586.736 942.772 663.913 904.411 732.256C866.05 800.6 810.505 857.74 743.274 898.019C676.043 938.299 599.458 960.322 521.1 961.908C442.742 963.494 365.328 944.588 296.523 907.061C227.717 869.534 169.906 814.689 128.811 747.953C87.7161 681.218 64.7635 604.907 62.225 526.575L62 511.995L62.225 497.415C64.7452 419.7 87.36 343.963 127.865 277.59C168.369 211.216 225.381 156.47 293.343 118.69C361.305 80.9092 437.896 61.383 515.651 62.0149C593.406 62.6467 669.67 83.4151 737.008 122.295ZM512.006 241.995C500.983 241.997 490.345 246.043 482.108 253.367C473.872 260.691 468.61 270.784 467.32 281.73L467.005 286.995V511.995L467.41 517.89C468.436 525.697 471.493 533.099 476.275 539.355L480.19 543.855L615.192 678.855L619.422 682.545C627.314 688.668 637.019 691.991 647.007 691.991C656.996 691.991 666.701 688.668 674.593 682.545L678.823 678.81L682.558 674.58C688.681 666.688 692.004 656.984 692.004 646.995C692.004 637.006 688.681 627.302 682.558 619.41L678.823 615.18L557.006 493.32V286.995L556.691 281.73C555.401 270.784 550.139 260.691 541.903 253.367C533.666 246.043 523.028 241.997 512.006 241.995Z"
            fill="#E4E4E4" />
    </g>
    <defs>
        <clipPath id="clip0_404_13">
            <rect width="1024" height="1024" fill="white" />
        </clipPath>
    </defs>
</svg>